<svg width="1200" height="475" viewBox="0 0 1200 475" xmlns="http://www.w3.org/2000/svg">

<defs>

<linearGradient id="bg" x1="0" y1="0" x2="1" y2="1">
<stop offset="0%" stop-color="#08080D"></stop>
<stop offset="100%" stop-color="#10091A"></stop>
</linearGradient>

</defs>

<rect x="20" y="20" width="1160" height="435" rx="20" fill="url(#bg)" stroke="#2A2038"></rect>

<text x="60" y="68" font-family="monospace" font-size="15" fill="#8B5CF6">
/proc/void/stack
</text>

<text x="1135" y="68" text-anchor="end" font-family="monospace" font-size="12" fill="#64748B">
MODULE MAP
</text>


<text x="60" y="120" font-family="monospace" font-size="13" fill="#C084FC">
LANGUAGES
</text>

<g font-family="monospace" font-size="17" fill="#F8FAFC">

<text x="60" y="158">Python</text>
<text x="220" y="158">C++</text>
<text x="340" y="158">C#</text>
<text x="450" y="158">JavaScript</text>
<text x="650" y="158">Lua</text>
<text x="760" y="158">HTML/CSS</text>

</g>


<line x1="60" y1="190" x2="1140" y2="190" stroke="#2A2038"></line>


<text x="60" y="230" font-family="monospace" font-size="13" fill="#C084FC">
FRAMEWORKS / RUNTIME
</text>

<g font-family="monospace" font-size="17" fill="#F8FAFC">

<text x="60" y="268">.NET</text>
<text x="180" y="268">WPF</text>
<text x="290" y="268">Flask</text>
<text x="420" y="268">Django</text>
<text x="570" y="268">React</text>
<text x="700" y="268">Node.js</text>

</g>


<line x1="60" y1="300" x2="1140" y2="300" stroke="#2A2038"></line>


<text x="60" y="340" font-family="monospace" font-size="13" fill="#C084FC">
SYSTEMS / INFRASTRUCTURE
</text>

<g font-family="monospace" font-size="17" fill="#F8FAFC">

<text x="60" y="378">Windows</text>
<text x="210" y="378">Linux</text>
<text x="330" y="378">Git</text>
<text x="430" y="378">PowerShell</text>
<text x="620" y="378">Nginx</text>
<text x="750" y="378">Docker</text>
<text x="890" y="378">SQLite</text>

</g>


<rect x="60" y="410" width="1080" height="2" fill="#251B33"></rect>

<rect y="410" width="180" height="2" fill="#8B5CF6">

<animate attributeName="x" values="-180;1200" dur="4s" repeatCount="indefinite"></animate>

</rect>

</svg>